<svg xmlns="http://www.w3.org/2000/svg" width="128" height="128" viewBox="0 0 400 400" preserveAspectRatio="xMidYMid meet" stroke-linejoin="round">
    <g transform="translate(0,400) scale(0.1,-0.1)" fill="white" stroke="black" stroke-width="40">
        <path d="M1000 2354 l1 -1149 400 -360 c345 -310 404 -360 434 -363 20 -2 104
        6 188 18 642 88 1088 248 1221 437 59 85 44 184 -41 269 -41 41 -136 105 -195
        131 l-40 18 5 50 c9 94 -11 366 -38 500 -86 431 -305 818 -620 1097 -332 293
        -750 463 -1212 494 l-103 7 0 -1149z"/>
    </g>
    <g transform="translate(0,400) scale(0.1,-0.1)" fill="black">
        <path d="M1100 3476 c219 -116 429 -584 565 -1259 99 -492 144 -939 148 -1459
        l2 -278 33 0 c17 0 98 9 180 20 638 89 1083 248 1216 437 59 85 44 184 -41
        269 -41 41 -136 105 -195 131 l-40 18 5 50 c9 94 -11 366 -38 500 -104 525
        -394 964 -829 1256 -289 194 -612 305 -976 333 l-75 6 45 -24z"/>
    </g>
</svg>
